<svg width="216" height="42" viewBox="0 0 216 42" fill="none" xmlns="http://www.w3.org/2000/svg">
    <path d="M57.7225 32.4672H54.4683C54.299 32.4672 54.2144 32.3932 54.2144 32.245L54.1826 10.1011C54.1826 9.93175 54.2673 9.84709 54.4366 9.84709H57.3732L62.8656 22.6572L62.7068 10.1011C62.7068 9.93175 62.8021 9.84709 62.9926 9.84709H66.215C66.3419 9.84709 66.4054 9.93175 66.4054 10.1011L66.4372 32.2768C66.4372 32.4038 66.3843 32.4672 66.2784 32.4672H63.4212L57.786 20.4984L58.0241 32.2133C58.0241 32.3826 57.9235 32.4672 57.7225 32.4672Z"
          fill="#6BA78E"/>
    <path d="M75.2471 32.7847C74.1042 32.7847 73.046 32.4884 72.0724 31.8958C71.0988 31.3032 70.321 30.5095 69.7389 29.5147C69.1675 28.5094 68.8817 27.4141 68.8817 26.2288L68.9452 9.97408C68.9452 9.88942 68.9876 9.84709 69.0722 9.84709H72.7232C72.8079 9.84709 72.8502 9.88942 72.8502 9.97408V26.2288C72.8502 26.959 73.083 27.5834 73.5486 28.102C74.0143 28.6099 74.5804 28.8639 75.2471 28.8639C75.9456 28.8639 76.5276 28.6099 76.9933 28.102C77.4589 27.5834 77.6917 26.959 77.6917 26.2288V9.97408C77.6917 9.88942 77.734 9.84709 77.8187 9.84709H81.4697C81.5543 9.84709 81.5967 9.88942 81.5967 9.97408L81.6602 26.2288C81.6602 27.4247 81.3744 28.5253 80.803 29.5306C80.2209 30.5254 79.4484 31.319 78.4854 31.9117C77.5224 32.4937 76.443 32.7847 75.2471 32.7847Z"
          fill="#6BA78E"/>
    <path d="M91.1527 32.4672H87.4858C87.3906 32.4672 87.343 32.4143 87.343 32.3085V13.7679H83.1205C83.0147 13.7679 82.9618 13.715 82.9618 13.6092L82.9935 9.97408C82.9935 9.88942 83.0359 9.84709 83.1205 9.84709H95.4704C95.5868 9.84709 95.645 9.88942 95.645 9.97408V13.6092C95.645 13.715 95.6026 13.7679 95.518 13.7679H91.2479L91.2797 32.3085C91.2797 32.4143 91.2373 32.4672 91.1527 32.4672Z"
          fill="#6BA78E"/>
    <path d="M101.042 32.4672H97.3593C97.2747 32.4672 97.2323 32.4143 97.2323 32.3085L97.2958 9.97408C97.2958 9.88942 97.3382 9.84709 97.4228 9.84709H103.995C105.169 9.84709 106.249 10.1328 107.233 10.7043C108.217 11.2757 109 12.043 109.582 13.006C110.175 13.969 110.471 15.059 110.471 16.276C110.471 17.0697 110.349 17.7893 110.106 18.4348C109.863 19.0803 109.577 19.6253 109.249 20.0698C108.931 20.5143 108.64 20.8423 108.376 21.054C109.55 22.3556 110.138 23.8848 110.138 25.6415L110.169 32.3085C110.169 32.4143 110.117 32.4672 110.011 32.4672H106.328C106.243 32.4672 106.201 32.4355 106.201 32.372V25.6415C106.201 24.8584 105.926 24.1811 105.376 23.6097C104.825 23.0382 104.148 22.7525 103.344 22.7525H101.201L101.169 32.3085C101.169 32.4143 101.127 32.4672 101.042 32.4672ZM103.995 13.7362H101.201V18.8475H103.995C104.661 18.8475 105.254 18.5988 105.772 18.1015C106.302 17.6041 106.566 16.9956 106.566 16.276C106.566 15.5881 106.312 14.9955 105.804 14.4981C105.296 13.9902 104.693 13.7362 103.995 13.7362Z"
          fill="#6BA78E"/>
    <path d="M116.757 32.4672H113.074C112.969 32.4672 112.916 32.4143 112.916 32.3085L112.947 9.97408C112.947 9.88942 112.99 9.84709 113.074 9.84709H116.725C116.81 9.84709 116.852 9.88942 116.852 9.97408L116.884 32.3085C116.884 32.4143 116.842 32.4672 116.757 32.4672Z"
          fill="#6BA78E"/>
    <path d="M126.678 32.4672H123.011C122.916 32.4672 122.869 32.4143 122.869 32.3085V13.7679H118.646C118.54 13.7679 118.487 13.715 118.487 13.6092L118.519 9.97408C118.519 9.88942 118.561 9.84709 118.646 9.84709H130.996C131.112 9.84709 131.171 9.88942 131.171 9.97408V13.6092C131.171 13.715 131.128 13.7679 131.044 13.7679H126.773L126.805 32.3085C126.805 32.4143 126.763 32.4672 126.678 32.4672Z"
          fill="#6BA78E"/>
    <path d="M136.599 32.4672H132.917C132.811 32.4672 132.758 32.4143 132.758 32.3085L132.79 9.97408C132.79 9.88942 132.832 9.84709 132.917 9.84709H136.568C136.652 9.84709 136.695 9.88942 136.695 9.97408L136.726 32.3085C136.726 32.4143 136.684 32.4672 136.599 32.4672Z"
          fill="#6BA78E"/>
    <path d="M145.6 32.7847C144.446 32.7847 143.383 32.4884 142.409 31.8958C141.446 31.3032 140.668 30.5148 140.076 29.5306C139.494 28.5358 139.203 27.4458 139.203 26.2606L139.234 15.9585C139.234 14.7521 139.525 13.6674 140.107 12.7044C140.679 11.7308 141.451 10.953 142.425 10.3709C143.399 9.77831 144.457 9.48199 145.6 9.48199C146.785 9.48199 147.849 9.77301 148.79 10.3551C149.743 10.9371 150.505 11.7202 151.076 12.7044C151.658 13.678 151.949 14.7627 151.949 15.9585L151.981 26.2606C151.981 27.4458 151.695 28.5305 151.124 29.5147C150.542 30.5095 149.769 31.3032 148.806 31.8958C147.843 32.4884 146.774 32.7847 145.6 32.7847ZM145.6 28.8639C146.256 28.8639 146.827 28.5993 147.314 28.0702C147.801 27.5305 148.044 26.9273 148.044 26.2606L148.013 15.9585C148.013 15.2389 147.785 14.6304 147.33 14.133C146.875 13.6356 146.298 13.3869 145.6 13.3869C144.933 13.3869 144.362 13.6303 143.885 14.1171C143.409 14.6039 143.171 15.2177 143.171 15.9585V26.2606C143.171 26.9696 143.409 27.5834 143.885 28.102C144.362 28.6099 144.933 28.8639 145.6 28.8639Z"
          fill="#6BA78E"/>
    <path d="M157.981 32.4672H154.727C154.558 32.4672 154.473 32.3932 154.473 32.245L154.441 10.1011C154.441 9.93175 154.526 9.84709 154.695 9.84709H157.632L163.124 22.6572L162.966 10.1011C162.966 9.93175 163.061 9.84709 163.251 9.84709H166.474C166.601 9.84709 166.664 9.93175 166.664 10.1011L166.696 32.2768C166.696 32.4038 166.643 32.4672 166.537 32.4672H163.68L158.045 20.4984L158.283 32.2133C158.283 32.3826 158.182 32.4672 157.981 32.4672Z"
          fill="#6BA78E"/>
    <path d="M174.871 32.4672H171.204C171.109 32.4672 171.061 32.4143 171.061 32.3085V13.7679H166.839C166.733 13.7679 166.68 13.715 166.68 13.6092L166.712 9.97408C166.712 9.88942 166.754 9.84709 166.839 9.84709H179.189C179.305 9.84709 179.363 9.88942 179.363 9.97408V13.6092C179.363 13.715 179.321 13.7679 179.236 13.7679H174.966L174.998 32.3085C174.998 32.4143 174.956 32.4672 174.871 32.4672Z"
          fill="#FFA767"/>
    <path d="M184.792 32.4672H181.109C181.004 32.4672 180.951 32.4143 180.951 32.3085L180.982 9.97408C180.982 9.88942 181.025 9.84709 181.109 9.84709H184.76C184.845 9.84709 184.887 9.88942 184.887 9.97408L184.919 32.3085C184.919 32.4143 184.877 32.4672 184.792 32.4672Z"
          fill="#FFA767"/>
    <path d="M191.586 32.4672H187.903C187.819 32.4672 187.776 32.4143 187.776 32.3085L187.84 9.97408C187.84 9.88942 187.882 9.84709 187.967 9.84709H191.935C192.02 9.84709 192.094 9.88942 192.158 9.97408L195.126 14.26L198.079 9.97408C198.142 9.88942 198.221 9.84709 198.317 9.84709H202.301C202.396 9.84709 202.444 9.88942 202.444 9.97408L202.507 32.3085C202.507 32.4143 202.465 32.4672 202.38 32.4672H198.698C198.613 32.4672 198.571 32.4143 198.571 32.3085L198.539 15.7204L195.126 20.673L191.745 15.7204L191.713 32.3085C191.713 32.4143 191.671 32.4672 191.586 32.4672Z"
          fill="#FFA767"/>
    <path d="M215.873 32.4672H205.365C205.28 32.4672 205.238 32.4143 205.238 32.3085L205.269 9.97408C205.269 9.88942 205.312 9.84709 205.396 9.84709H215.841C215.926 9.84709 215.968 9.9 215.968 10.0058V13.6409C215.968 13.7256 215.926 13.7679 215.841 13.7679H209.174V18.8475H215.841C215.926 18.8475 215.968 18.8899 215.968 18.9745L216 22.6572C216 22.7419 215.958 22.7842 215.873 22.7842H209.174V28.4671H215.873C215.958 28.4671 216 28.52 216 28.6258V32.3403C216 32.4249 215.958 32.4672 215.873 32.4672Z"
          fill="#FFA767"/>
    <rect width="41.3226" height="42" rx="20.6613" fill="#6BA78E"/>
    <rect x="4.74194" y="4.74191" width="31.8387" height="32.5161" rx="15.9194" fill="url(#paint0_linear_824_1776)"/>
    <rect x="4.74194" y="4.74191" width="31.8387" height="32.5161" rx="15.9194"/>
    <path d="M20.1478 9.8753C20.3639 9.65913 20.7144 9.65913 20.9306 9.8753L23.8468 12.7915C24.6278 13.5726 24.6278 14.8389 23.8468 15.6199L20.9576 18.5092C20.7403 18.7265 20.386 18.7246 20.1687 18.5073C17.7908 16.1294 17.7699 12.2532 20.1478 9.8753Z"
          fill="#FFA767"/>
    <path d="M12.0892 17.7048C12.8703 16.9238 14.1366 16.9238 14.9176 17.7048L17.8338 20.6211C18.05 20.8372 18.05 21.1877 17.8338 21.4039C15.456 23.7818 11.5798 23.7608 9.20188 21.383C8.98457 21.1656 8.98266 20.8114 9.19997 20.5941L12.0892 17.7048Z"
          fill="#FFA767"/>
    <path d="M22.8113 20.5962C25.1892 18.2183 29.0654 18.2392 31.4433 20.6171C31.6606 20.8344 31.6625 21.1886 31.4452 21.406L28.5559 24.2952C27.7749 25.0762 26.5086 25.0762 25.7275 24.2952L22.8113 21.379C22.5951 21.1628 22.5951 20.8123 22.8113 20.5962Z"
          fill="#FFA767"/>
    <path d="M20.1457 23.4909C20.363 23.2736 20.7173 23.2755 20.9346 23.4928C23.3125 25.8707 23.3334 29.7469 20.9555 32.1248C20.7393 32.3409 20.3888 32.3409 20.1727 32.1248L17.2565 29.2085C16.4754 28.4275 16.4754 27.1612 17.2565 26.3801L20.1457 23.4909Z"
          fill="#FFA767"/>
    <defs>
        <linearGradient id="paint0_linear_824_1776" x1="36.5807" y1="4.74191" x2="5.04535" y2="37.5497"
                        gradientUnits="userSpaceOnUse">
            <stop stop-color="#FFE8A6"/>
            <stop offset="1" stop-color="#FDC755"/>
        </linearGradient>
    </defs>
</svg>
