<svg width="24" height="23" viewBox="0 0 24 23" fill="none" xmlns="http://www.w3.org/2000/svg">
<path d="M12 0.813919C5.88251 0.813919 0.877319 5.70637 0.877319 11.7321C0.877319 17.1802 4.94821 21.7022 10.2648 22.5194V14.892H7.43968V11.7321H10.2648V9.32394C10.2648 6.58897 11.9221 5.08528 14.4692 5.08528C15.6816 5.08528 16.9495 5.29231 16.9495 5.29231V7.9837H15.5481C14.1689 7.9837 13.7351 8.82271 13.7351 9.68354V11.7321H16.8272L16.3267 14.892H13.7351V22.5194C16.356 22.1138 18.7427 20.8038 20.4642 18.8256C22.1856 16.8474 23.1286 14.3315 23.1226 11.7321C23.1226 5.70637 18.1174 0.813919 12 0.813919Z" fill="#0085FF"/>
</svg>
