<svg width="38" height="38" viewBox="0 0 38 38" fill="none" xmlns="http://www.w3.org/2000/svg">
<path d="M19 38C29.4934 38 38 29.4934 38 19C38 8.50659 29.4934 0 19 0C8.50659 0 0 8.50659 0 19C0 29.4934 8.50659 38 19 38Z" fill="#FED056"/>
<path d="M18.9996 34.4816C27.5501 34.4816 34.4816 27.5501 34.4816 18.9996C34.4816 10.4491 27.5501 3.51758 18.9996 3.51758C10.4491 3.51758 3.51758 10.4491 3.51758 18.9996C3.51758 27.5501 10.4491 34.4816 18.9996 34.4816Z" fill="#FEB635"/>
<path d="M34.4816 19C34.4816 27.5352 27.5348 34.482 18.9996 34.482C16.2164 34.482 13.6113 33.7473 11.3551 32.4559C13.4332 33.4949 15.7785 34.0813 18.2574 34.0813C26.7926 34.0813 33.7395 27.1344 33.7395 18.5992C33.7395 12.8473 30.5777 7.81523 25.902 5.15078C30.9859 7.68906 34.4816 12.9363 34.4816 19ZM20.0535 4.24531C23.1039 4.24531 25.9465 5.13594 28.3363 6.65742C25.7387 4.69805 22.5027 3.52539 18.9996 3.52539C10.4645 3.52539 3.51758 10.4648 3.51758 19.0074C3.51758 24.5145 6.41211 29.3684 10.7613 32.0996C7.00586 29.2719 4.57148 24.7816 4.57148 19.7273C4.57148 11.1922 11.5184 4.24531 20.0535 4.24531Z" fill="#FC9924"/>
<path d="M20.4773 12.6461L21.6202 16.1567C21.7612 16.5872 22.1694 16.884 22.6222 16.884H26.3109C27.3277 16.884 27.7581 18.1903 26.9269 18.7915L23.9507 20.9512C23.5796 21.2184 23.4237 21.6934 23.5722 22.1313L24.7152 25.6418C25.0343 26.6141 23.9136 27.4231 23.0972 26.8219L20.1136 24.6547C19.7425 24.3876 19.2452 24.3876 18.8741 24.6547L15.8905 26.8219C15.0593 27.4231 13.9534 26.6141 14.2726 25.6418L15.4155 22.1313C15.5566 21.7008 15.4007 21.2184 15.037 20.9512L12.0237 18.784C11.1925 18.1829 11.623 16.8766 12.6398 16.8766H16.3284C16.7812 16.8766 17.1894 16.5797 17.3304 16.1493L18.4734 12.6387C18.7851 11.6739 20.1655 11.6739 20.4773 12.6461Z" fill="#FC9924"/>
<path d="M19.5339 11.7038L20.6769 15.2144C20.8179 15.6448 21.2261 15.9417 21.6788 15.9417H25.3675C26.3843 15.9417 26.8148 17.2479 25.9835 17.8491L22.9999 20.0163C22.6288 20.2835 22.473 20.7585 22.6214 21.1964L23.7644 24.7069C24.0835 25.6792 22.9628 26.4882 22.1464 25.887L19.1628 23.7198C18.7917 23.4526 18.2944 23.4526 17.9234 23.7198L14.9175 25.887C14.0862 26.4882 12.9804 25.6792 13.2995 24.7069L14.4425 21.1964C14.5835 20.7659 14.4277 20.2835 14.064 20.0163L11.0804 17.8491C10.2491 17.2479 10.6796 15.9417 11.6964 15.9417H15.3851C15.8378 15.9417 16.246 15.6448 16.387 15.2144L17.53 11.7038C17.8343 10.7315 19.2148 10.7315 19.5339 11.7038Z" fill="#FED056"/>
</svg>
