<svg width="17" height="19" viewBox="0 0 17 19" fill="none" xmlns="http://www.w3.org/2000/svg">
<path fill-rule="evenodd" clip-rule="evenodd" d="M16 12.9505V11H13.2525C13.018 11 12.9008 11 12.802 11.0098C11.854 11.1041 11.1041 11.854 11.0098 12.802C11 12.9008 11 13.018 11 13.2525C11 13.5322 11 13.6721 11.0124 13.7831C11.1332 14.8609 12.0909 15.646 13.1714 15.553C13.2827 15.5435 13.4199 15.516 13.6942 15.4612L13.9903 15.4019C14.3708 15.3258 14.561 15.2878 14.7215 15.2257C15.3765 14.9724 15.8506 14.394 15.9706 13.7021C16 13.5325 16 13.3385 16 12.9505ZM6 14.9505V13H3.25245C3.018 13 2.90078 13 2.80205 13.0098C1.85403 13.1041 1.10411 13.854 1.00982 14.802C1 14.9008 1 15.018 1 15.2525C1 15.5322 1 15.6721 1.01244 15.7831C1.13321 16.8609 2.0909 17.646 3.17139 17.553C3.28267 17.5435 3.41994 17.516 3.69419 17.4612L3.99029 17.4019C4.37076 17.3258 4.56099 17.2878 4.7215 17.2257C5.3765 16.9724 5.85063 16.394 5.9706 15.7021C6 15.5325 6 15.3385 6 14.9505Z" fill="#131313"/>
<path d="M6 13V8M6 13V14.9505M6 13H3.25245M16 11V6M16 11V12.9505M16 11H13.2525M16 6L6 8M16 6V5.87922M6 8V6.27922M6 6.27922C6 4.70946 6 3.92459 6.45332 3.37163C6.90663 2.81867 7.67627 2.66475 9.21554 2.35689M6 6.27922V6.27922C6 4.70946 6 3.92459 6.45332 3.37163C6.45332 3.37163 6.45332 3.37163 6.45332 3.37163C6.90663 2.81867 7.67627 2.66475 9.21554 2.35689V2.35689M6 6.27922V14.9505M9.21554 2.35689L11.2155 1.95689M11.2155 1.95689C13.4291 1.51417 14.536 1.29281 15.268 1.89292C16 2.49304 16 3.62176 16 5.87922M11.2155 1.95689V1.95689C13.4291 1.51417 14.536 1.29281 15.268 1.89292C16 2.49304 16 3.62176 16 5.87922V5.87922M16 12.9505C16 13.3385 16 13.5325 15.9706 13.7021C15.8506 14.394 15.3765 14.9724 14.7215 15.2257C14.561 15.2878 14.3708 15.3258 13.9903 15.4019M16 12.9505V12.9505C16 13.3385 16 13.5325 15.9706 13.702C15.8506 14.394 15.3765 14.9724 14.7215 15.2257C14.561 15.2878 14.3708 15.3258 13.9903 15.4019V15.4019M13.9903 15.4019L13.6942 15.4612M13.6942 15.4612C13.4199 15.516 13.2827 15.5435 13.1714 15.553C12.0909 15.646 11.1332 14.8609 11.0124 13.7831C11 13.6721 11 13.5322 11 13.2525M13.6942 15.4612V15.4612C13.4199 15.516 13.2827 15.5435 13.1714 15.553C12.0909 15.646 11.1332 14.8609 11.0124 13.7831C11 13.6721 11 13.5322 11 13.2525V13.2525M11 13.2525C11 13.018 11 12.9008 11.0098 12.802C11.1041 11.854 11.854 11.1041 12.802 11.0098C12.9008 11 13.018 11 13.2525 11M11 13.2525V13.2525C11 13.018 11 12.9008 11.0098 12.8021C11.1041 11.854 11.854 11.1041 12.8021 11.0098C12.9008 11 13.018 11 13.2525 11V11M6 14.9505C6 15.3385 6 15.5325 5.9706 15.7021C5.85063 16.394 5.3765 16.9724 4.7215 17.2257C4.56099 17.2878 4.37076 17.3258 3.99029 17.4019M6 14.9505V14.9505C6 15.3385 6 15.5325 5.9706 15.7021C5.85063 16.394 5.3765 16.9724 4.7215 17.2257C4.56099 17.2878 4.37075 17.3258 3.99029 17.4019V17.4019M3.99029 17.4019L3.69419 17.4612M3.69419 17.4612C3.41994 17.516 3.28267 17.5435 3.17139 17.553C2.0909 17.646 1.13321 16.8609 1.01244 15.7831C1 15.6721 1 15.5322 1 15.2525M3.69419 17.4612V17.4612C3.41986 17.516 3.28269 17.5435 3.17139 17.553C2.0909 17.646 1.13321 16.8608 1.01244 15.7831C1 15.6721 1 15.5322 1 15.2525V15.2525M1 15.2525C1 15.018 1 14.9008 1.00982 14.802C1.10411 13.854 1.85403 13.1041 2.80205 13.0098C2.90078 13 3.018 13 3.25245 13M1 15.2525V15.2525C1 15.018 1 14.9008 1.00982 14.8021C1.10411 13.854 1.85403 13.1041 2.80205 13.0098C2.90078 13 3.01801 13 3.25245 13V13" stroke="#131313" stroke-width="2"/>
</svg>
