<svg width="24" height="23" viewBox="0 0 24 23" fill="none" xmlns="http://www.w3.org/2000/svg">
<path fill-rule="evenodd" clip-rule="evenodd" d="M23.5505 11.6667C23.5505 17.9159 18.3791 22.9821 12 22.9821C5.62089 22.9821 0.449585 17.9159 0.449585 11.6667C0.449585 5.41733 5.62089 0.351257 12 0.351257C18.3791 0.351257 23.5505 5.41733 23.5505 11.6667ZM12.4139 8.70479C11.2905 9.16256 9.04516 10.11 5.67797 11.5472C5.13119 11.7602 4.84476 11.9687 4.81869 12.1723C4.77463 12.5168 5.21483 12.6523 5.81425 12.837C5.89579 12.8621 5.98027 12.8882 6.06688 12.9157C6.65662 13.1035 7.44994 13.3232 7.86235 13.332C8.23645 13.3399 8.65398 13.1888 9.11495 12.8787C12.2611 10.7982 13.8851 9.74667 13.9869 9.72392C14.0589 9.70797 14.1586 9.68783 14.2261 9.74667C14.2937 9.80551 14.287 9.91685 14.2799 9.94672C14.2363 10.1289 12.5084 11.7026 11.6141 12.517C11.3354 12.7709 11.1377 12.951 11.0972 12.9922C11.0067 13.0843 10.9144 13.1714 10.8257 13.2551C10.2779 13.7726 9.86689 14.1606 10.8485 14.7942C11.3202 15.0987 11.6975 15.3505 12.0741 15.6017C12.4853 15.8761 12.8954 16.1497 13.4262 16.4905C13.5613 16.5773 13.6904 16.6675 13.8162 16.7553C14.2948 17.0896 14.7247 17.3899 15.2559 17.3419C15.5645 17.3142 15.8833 17.0298 16.0452 16.1819C16.4279 14.1779 17.1801 9.83583 17.3539 8.04665C17.3691 7.8899 17.35 7.68928 17.3346 7.60121C17.3191 7.51314 17.287 7.38765 17.1701 7.29476C17.0318 7.18476 16.8182 7.16156 16.7225 7.16313C16.2881 7.17071 15.6216 7.39776 12.4139 8.70479Z" fill="#0085FF"/>
</svg>
